<svg width="11" height="19" viewBox="0 0 11 19" fill="none" xmlns="http://www.w3.org/2000/svg">
<path fill-rule="evenodd" clip-rule="evenodd" d="M5.52646 0C8.20999 0 10.425 2.21771 10.4037 4.92588C10.4037 7.65538 8.16739 9.85177 5.44127 9.80912C2.75774 9.76647 0.606661 7.57008 0.606661 4.90456C0.606661 2.19639 2.80034 0 5.52646 0ZM11 11.5151C11 11.5364 10.9947 11.5524 10.9894 11.5684C10.984 11.5844 10.9787 11.6004 10.9787 11.6217C10.9148 12.0482 10.7018 12.3893 10.3398 12.6239C10.1055 12.7732 9.84992 12.9224 9.59435 13.0504C8.95541 13.3703 8.27388 13.6261 7.57105 13.7967C7.52881 13.8073 7.50751 13.8126 7.50457 13.8231C7.50157 13.8338 7.51754 13.8498 7.54975 13.882L7.54975 13.882L8.72114 15.0549L10.212 16.5476C10.9148 17.2513 10.7231 18.4241 9.82862 18.8506C9.71486 18.9157 9.5887 18.9435 9.45961 18.972C9.41952 18.9808 9.37915 18.9897 9.33877 18.9998H9.0619C9.0406 18.9998 9.0193 18.9998 9.0193 18.9785C8.67854 18.9359 8.40167 18.7653 8.14609 18.5307L5.56905 15.9505C5.53711 15.9185 5.52114 15.9025 5.50516 15.9025C5.48919 15.9025 5.47322 15.9185 5.44127 15.9505L2.84293 18.552C2.69385 18.7013 2.54476 18.8079 2.35308 18.8932C2.23433 18.9527 2.09719 18.9753 1.97584 18.9953L1.94842 18.9998H1.67155C1.65026 18.9998 1.63428 18.9945 1.61831 18.9892C1.60234 18.9838 1.58636 18.9785 1.56506 18.9785C0.990023 18.8719 0.606661 18.552 0.436278 17.9976C0.265896 17.4432 0.393682 16.9527 0.798342 16.5476L1.86323 15.4813L3.43927 13.9034C3.47149 13.8711 3.48746 13.8551 3.48446 13.8445C3.48151 13.834 3.46022 13.8286 3.41798 13.8181C3.40733 13.8181 3.39135 13.8127 3.37538 13.8074C3.35941 13.8021 3.34343 13.7967 3.33278 13.7967C2.37438 13.5622 1.50117 13.1783 0.670555 12.6666C0.180705 12.3467 -0.0535718 11.8776 0.0103215 11.3018C0.116811 10.2356 1.30949 9.65985 2.204 10.2356C2.37438 10.3422 2.52347 10.4275 2.71515 10.5128C3.69485 11.0033 4.73844 11.2165 5.82463 11.1525C6.35708 11.1312 6.88952 11.0246 7.42197 10.854C7.93312 10.6834 8.38037 10.4488 8.84892 10.193C9.61564 9.74515 10.6166 10.1077 10.9148 10.9393C10.9574 11.0672 10.9787 11.1739 11 11.3018V11.5151ZM5.48353 6.9303C6.63361 6.9303 7.52812 5.97071 7.50683 4.92583C7.52812 3.88094 6.65491 2.90003 5.50483 2.90003C4.39734 2.90003 3.48153 3.79565 3.48153 4.90451C3.48153 6.01336 4.37604 6.9303 5.48353 6.9303Z" fill="#041827"/>
</svg>
