<svg width="19" height="11" viewBox="0 0 19 11" fill="none" xmlns="http://www.w3.org/2000/svg">
<path fill-rule="evenodd" clip-rule="evenodd" d="M16.862 7.56184C16.9046 7.60231 16.9487 7.64416 16.9942 7.68749C17.9436 8.56328 19.0829 9.82831 18.988 10.5095C18.988 10.8014 18.7981 10.996 18.1335 10.996H15.5701C14.4582 10.996 14.0409 10.5215 13.369 9.75759C13.1804 9.54311 12.9717 9.30582 12.7219 9.04983C11.6776 7.97942 11.108 8.7579 11.108 10.3149C11.108 10.5095 11.013 10.7041 10.9181 10.8014C10.8232 10.8987 10.6333 10.996 10.4434 10.996C10.3379 10.996 10.2291 10.997 10.1174 10.9979C8.62097 11.0109 6.58904 11.0284 4.55712 8.85521C2.3735 6.42246 0 1.65427 0 1.16772C0 0.87579 0.28482 0.77848 0.66458 0.77848H3.13302C3.60772 0.77848 3.98748 1.07041 4.08242 1.55696C4.93687 3.40585 6.83567 7.00632 7.31037 4.96281C7.59519 3.79509 7.69013 1.07041 6.45591 0.87579C5.79133 0.77848 7.02555 0 8.82941 0C9.30411 0 9.77881 0.0973098 10.2535 0.19462C10.5383 0.19462 10.8232 0.389239 11.013 0.583859C11.2029 0.778479 11.2978 1.07041 11.2029 1.36234C11.2029 2.01936 11.1804 2.60707 11.1607 3.12114C11.1103 4.43434 11.0783 5.26693 11.4877 5.54667C12.0574 5.93591 13.5764 3.50316 14.3359 1.65427C14.3521 1.61284 14.3676 1.57212 14.3827 1.53228C14.5454 1.10426 14.6692 0.77848 15.1904 0.77848H18.3234C19.9437 0.77848 18.3208 2.87795 16.9343 4.6716C16.8584 4.76972 16.7833 4.86692 16.7094 4.96281C15.6092 6.37246 15.66 6.42075 16.862 7.56184Z" fill="#041827"/>
</svg>
