<svg width="32" height="32" viewBox="0 0 32 32" fill="none" xmlns="http://www.w3.org/2000/svg">
<rect width="32" height="32" rx="3" fill="#041827"/>
<path d="M19.0333 9.93323C19.5975 9.93323 20.0742 10.2968 20.2536 10.7999H24.7464C24.9258 10.2968 25.4025 9.93323 25.9667 9.93323C26.6834 9.93323 27.2667 10.5165 27.2667 11.2332C27.2667 11.9499 26.6834 12.5332 25.9667 12.5332C25.4025 12.5332 24.9258 12.1696 24.7464 11.6665H20.2532C20.0738 12.1696 19.5971 12.5332 19.0329 12.5332C18.3162 12.5332 17.7329 11.9499 17.7329 11.2332C17.7329 10.5165 18.3166 9.93323 19.0333 9.93323ZM25.9667 11.6665C26.2054 11.6665 26.4 11.4724 26.4 11.2332C26.4 10.994 26.2054 10.7999 25.9667 10.7999C25.7279 10.7999 25.5333 10.994 25.5333 11.2332C25.5333 11.4724 25.7279 11.6665 25.9667 11.6665ZM19.0333 11.6665C19.2721 11.6665 19.4667 11.4724 19.4667 11.2332C19.4667 10.994 19.2721 10.7999 19.0333 10.7999C18.7946 10.7999 18.6 10.994 18.6 11.2332C18.6 11.4724 18.7946 11.6665 19.0333 11.6665Z" fill="#00B2FF"/>
<path d="M15.5667 12.6129V9.93322C15.5667 9.81795 15.6122 9.70789 15.6936 9.62685L17.427 7.89355C17.508 7.81208 17.6185 7.76659 17.7333 7.76659H19.1131C19.2925 7.26349 19.7691 6.89993 20.3333 6.89993C21.0501 6.89993 21.6333 7.48319 21.6333 8.19991C21.6333 8.91663 21.0501 9.49989 20.3333 9.49989C19.7691 9.49989 19.2925 9.13633 19.1131 8.63324H17.9127L16.4333 10.1126V12.6129C16.9364 12.7923 17.3 13.269 17.3 13.8332C17.3 14.5499 16.7167 15.1331 16 15.1331C15.2833 15.1331 14.7 14.5499 14.7 13.8332C14.7 13.269 15.0636 12.7923 15.5667 12.6129ZM20.3333 8.63324C20.5721 8.63324 20.7667 8.43911 20.7667 8.19991C20.7667 7.96072 20.5721 7.76659 20.3333 7.76659C20.0946 7.76659 19.9 7.96072 19.9 8.19991C19.9 8.43911 20.0946 8.63324 20.3333 8.63324ZM16 14.2665C16.2388 14.2665 16.4333 14.0723 16.4333 13.8332C16.4333 13.594 16.2388 13.3998 16 13.3998C15.7612 13.3998 15.5667 13.594 15.5667 13.8332C15.5667 14.0723 15.7612 14.2665 16 14.2665Z" fill="#00B2FF"/>
<path d="M7.76667 14.2665C7.96687 14.2665 8.15407 14.3154 8.3235 14.3969L9.06667 13.6538V9.49989C9.06667 9.38463 9.11217 9.27456 9.19364 9.19353L13.5304 4.8568C13.449 4.68737 13.4 4.50018 13.4 4.29998C13.4 3.58326 13.9833 3 14.7 3C15.4167 3 16 3.58326 16 4.29998C16 5.0167 15.4167 5.59996 14.7 5.59996C14.4998 5.59996 14.3126 5.55099 14.1432 5.46953L9.93334 9.67929V13.8332C9.93334 13.9484 9.88784 14.0585 9.80637 14.1395L8.93624 15.0096C9.0177 15.1791 9.06667 15.3663 9.06667 15.5665C9.06667 16.2832 8.4834 16.8664 7.76667 16.8664C7.04994 16.8664 6.46667 16.2832 6.46667 15.5665C6.46667 14.8497 7.04994 14.2665 7.76667 14.2665ZM14.7 4.7333C14.9388 4.7333 15.1333 4.53917 15.1333 4.29998C15.1333 4.06078 14.9388 3.86665 14.7 3.86665C14.4612 3.86665 14.2667 4.06078 14.2667 4.29998C14.2667 4.53917 14.4612 4.7333 14.7 4.7333ZM7.76667 15.9998C8.00544 15.9998 8.2 15.8057 8.2 15.5665C8.2 15.3273 8.00544 15.1331 7.76667 15.1331C7.5279 15.1331 7.33334 15.3273 7.33334 15.5665C7.33334 15.8057 7.5279 15.9998 7.76667 15.9998Z" fill="#00B2FF"/>
<path d="M3.86668 9.1463V7.33326C3.86668 7.218 3.91218 7.10793 3.99365 7.0269L7.02698 3.99362C7.10801 3.91215 7.21851 3.86665 7.33335 3.86665H9.57975C9.75915 3.36356 10.2358 3 10.8 3C11.5167 3 12.1 3.58326 12.1 4.29998C12.1 5.0167 11.5167 5.59996 10.8 5.59996C10.2358 5.59996 9.75915 5.2364 9.57975 4.7333H7.51275L4.73335 7.51266V9.1463C5.23645 9.3257 5.60001 9.80235 5.60001 10.3665C5.60001 11.0833 5.01675 11.6665 4.30001 11.6665C3.58328 11.6665 3.00001 11.0833 3.00001 10.3665C3.00001 9.80235 3.36358 9.3257 3.86668 9.1463ZM10.8 4.7333C11.0388 4.7333 11.2333 4.53917 11.2333 4.29998C11.2333 4.06078 11.0388 3.86665 10.8 3.86665C10.5612 3.86665 10.3667 4.06078 10.3667 4.29998C10.3667 4.53917 10.5612 4.7333 10.8 4.7333ZM4.30001 10.7999C4.53878 10.7999 4.73335 10.6057 4.73335 10.3665C4.73335 10.1273 4.53878 9.93322 4.30001 9.93322C4.06125 9.93322 3.86668 10.1273 3.86668 10.3665C3.86668 10.6057 4.06125 10.7999 4.30001 10.7999Z" fill="#00B2FF"/>
<path d="M9.93291 26.4798V20.2533C9.43025 20.0739 9.06668 19.5973 9.06668 19.0331C9.06668 18.3164 9.64995 17.7331 10.3667 17.7331C10.9309 17.7331 11.4075 18.0967 11.5869 18.5998H16.0797C16.2591 18.0967 16.7358 17.7331 17.3 17.7331C17.8642 17.7331 18.3409 18.0967 18.5203 18.5998H21.0206L22.6304 16.99C22.549 16.8205 22.5 16.6333 22.5 16.4331C22.5 15.7164 23.0833 15.1331 23.8 15.1331C24.5167 15.1331 25.1 15.7164 25.1 16.4331C25.1 17.1498 24.5167 17.7331 23.8 17.7331C23.5998 17.7331 23.4126 17.6841 23.2432 17.6027L21.5064 19.3394C21.4253 19.4209 21.3148 19.4664 21.2 19.4664H18.5203C18.3409 19.9695 17.8642 20.3331 17.3 20.3331C16.7358 20.3331 16.2591 19.9695 16.0797 19.4664H11.5865C11.4556 19.8334 11.1666 20.1225 10.7996 20.2533V26.4798C11.3027 26.6592 11.6662 27.1358 11.6662 27.7C11.6662 28.4168 11.083 29 10.3662 29C9.64951 29 9.06625 28.4168 9.06625 27.7C9.06625 27.1358 9.42981 26.6592 9.93291 26.4798ZM23.8 16.8665C24.0388 16.8665 24.2333 16.6723 24.2333 16.4331C24.2333 16.1939 24.0388 15.9998 23.8 15.9998C23.5612 15.9998 23.3667 16.1939 23.3667 16.4331C23.3667 16.6723 23.5612 16.8665 23.8 16.8665ZM17.3 19.4664C17.5388 19.4664 17.7333 19.2723 17.7333 19.0331C17.7333 18.7939 17.5388 18.5998 17.3 18.5998C17.0612 18.5998 16.8667 18.7939 16.8667 19.0331C16.8667 19.2723 17.0612 19.4664 17.3 19.4664ZM10.3667 28.1329C10.6054 28.1329 10.8 27.9388 10.8 27.6996C10.8 27.4604 10.6054 27.2663 10.3667 27.2663C10.1279 27.2663 9.93335 27.4604 9.93335 27.6996C9.93335 27.9388 10.1279 28.1329 10.3667 28.1329ZM10.3667 19.4664C10.6054 19.4664 10.8 19.2723 10.8 19.0331C10.8 18.7939 10.6054 18.5998 10.3667 18.5998C10.1279 18.5998 9.93335 18.7939 9.93335 19.0331C9.93335 19.2723 10.1279 19.4664 10.3667 19.4664Z" fill="#00B2FF"/>
<path d="M12.1 11.7463V10.3665C12.1 10.2513 12.1455 10.1412 12.227 10.0602L17.4304 4.8568C17.349 4.68737 17.3 4.50017 17.3 4.29998C17.3 3.58326 17.8833 3 18.6 3C19.1642 3 19.6409 3.36356 19.8203 3.86665H21.6333C21.8725 3.86665 22.0667 4.06035 22.0667 4.29998V5.42056L23.6765 7.03037C23.8459 6.9489 24.0331 6.89993 24.2333 6.89993C24.9501 6.89993 25.5333 7.48319 25.5333 8.19991C25.5333 8.91663 24.9501 9.49989 24.2333 9.49989C23.5166 9.49989 22.9333 8.91663 22.9333 8.19991C22.9333 7.99972 22.9823 7.81252 23.0638 7.64309L21.327 5.90632C21.2455 5.82529 21.2 5.71522 21.2 5.59996V4.7333H19.8203C19.6409 5.2364 19.1642 5.59996 18.6 5.59996C18.3998 5.59996 18.2126 5.55099 18.0432 5.46953L12.9667 10.5459V11.7463C13.4698 11.9257 13.8333 12.4023 13.8333 12.9665C13.8333 13.6832 13.2501 14.2665 12.5333 14.2665C11.8166 14.2665 11.2333 13.6832 11.2333 12.9665C11.2333 12.4023 11.5969 11.9257 12.1 11.7463ZM24.2333 8.63324C24.4721 8.63324 24.6667 8.43911 24.6667 8.19991C24.6667 7.96072 24.4721 7.76659 24.2333 7.76659C23.9946 7.76659 23.8 7.96072 23.8 8.19991C23.8 8.43911 23.9946 8.63324 24.2333 8.63324ZM18.6 4.7333C18.8388 4.7333 19.0333 4.53917 19.0333 4.29998C19.0333 4.06078 18.8388 3.86665 18.6 3.86665C18.3612 3.86665 18.1667 4.06078 18.1667 4.29998C18.1667 4.53917 18.3612 4.7333 18.6 4.7333ZM12.5333 13.3998C12.7721 13.3998 12.9667 13.2057 12.9667 12.9665C12.9667 12.7273 12.7721 12.5332 12.5333 12.5332C12.2946 12.5332 12.1 12.7273 12.1 12.9665C12.1 13.2057 12.2946 13.3998 12.5333 13.3998Z" fill="#00B2FF"/>
<path d="M13.4 15.1331C13.9642 15.1331 14.4409 15.4967 14.6203 15.9998H19.7206L22.1936 13.5268C22.2747 13.4453 22.3852 13.3998 22.5 13.3998H27.0873L28.1333 12.3538V8.81264L24.7902 5.46953C24.6207 5.55099 24.4335 5.59996 24.2333 5.59996C23.5166 5.59996 22.9333 5.0167 22.9333 4.29998C22.9333 3.58326 23.5166 3 24.2333 3C24.9501 3 25.5333 3.58326 25.5333 4.29998C25.5333 4.50018 25.4844 4.68737 25.4029 4.8568L28.873 8.32688C28.9545 8.40791 29 8.51797 29 8.63324V12.5332C29 12.6484 28.9545 12.7585 28.873 12.8395L27.573 14.1395C27.492 14.221 27.3815 14.2665 27.2667 14.2665H22.6794L20.2064 16.7395C20.1253 16.8209 20.0148 16.8664 19.9 16.8664H14.6203C14.4409 17.3695 13.9642 17.7331 13.4 17.7331C12.6833 17.7331 12.1 17.1498 12.1 16.4331C12.1 15.7164 12.6833 15.1331 13.4 15.1331ZM24.2333 3.86665C23.9946 3.86665 23.8 4.06078 23.8 4.29998C23.8 4.53917 23.9946 4.7333 24.2333 4.7333C24.4721 4.7333 24.6667 4.53917 24.6667 4.29998C24.6667 4.06078 24.4721 3.86665 24.2333 3.86665ZM13.4 16.8664C13.6388 16.8664 13.8333 16.6723 13.8333 16.4331C13.8333 16.1939 13.6388 15.9998 13.4 15.9998C13.1612 15.9998 12.9667 16.1939 12.9667 16.4331C12.9667 16.6723 13.1612 16.8664 13.4 16.8664Z" fill="#00B2FF"/>
<path d="M4.30001 13.3998C4.50021 13.3998 4.68741 13.4488 4.85684 13.5303L6.46667 11.9204V9.42016C5.96357 9.24076 5.60001 8.7641 5.60001 8.19991C5.60001 7.48319 6.18327 6.89993 6.90001 6.89993C7.61674 6.89993 8.20001 7.48319 8.20001 8.19991C8.20001 8.7641 7.83644 9.24076 7.33334 9.42016V12.0998C7.33334 12.2151 7.28784 12.3252 7.20637 12.4062L5.46957 14.143C5.55104 14.3124 5.60001 14.4996 5.60001 14.6998C5.60001 15.264 5.23644 15.7407 4.73334 15.92V16.2537L8.07304 19.5934C8.15451 19.6744 8.20001 19.7845 8.20001 19.8997V20.4128C8.70311 20.5922 9.06667 21.0688 9.06667 21.633C9.06667 22.1972 8.70311 22.6739 8.20001 22.8533V23.8798C8.70311 24.0592 9.06667 24.5359 9.06667 25.1001C9.06667 25.8168 8.48341 26.4 7.76667 26.4C7.04994 26.4 6.46667 25.8168 6.46667 25.1001C6.46667 24.5359 6.83024 24.0592 7.33334 23.8798V22.8533C6.83024 22.6739 6.46667 22.1972 6.46667 21.633C6.46667 21.0688 6.83024 20.5922 7.33334 20.4128V20.0791L3.99364 16.7395C3.91217 16.6584 3.86667 16.5484 3.86667 16.4331V15.92C3.36357 15.7407 3.00001 15.264 3.00001 14.6998C3.00001 13.9831 3.58327 13.3998 4.30001 13.3998ZM6.90001 8.63324C7.13877 8.63324 7.33334 8.43911 7.33334 8.19991C7.33334 7.96072 7.13877 7.76659 6.90001 7.76659C6.66124 7.76659 6.46667 7.96072 6.46667 8.19991C6.46667 8.43911 6.66124 8.63324 6.90001 8.63324ZM7.76667 25.533C8.00544 25.533 8.20001 25.3388 8.20001 25.0996C8.20001 24.8604 8.00544 24.6663 7.76667 24.6663C7.52791 24.6663 7.33334 24.8604 7.33334 25.0996C7.33334 25.3388 7.52791 25.533 7.76667 25.533ZM7.76667 22.0663C8.00544 22.0663 8.20001 21.8722 8.20001 21.633C8.20001 21.3938 8.00544 21.1997 7.76667 21.1997C7.52791 21.1997 7.33334 21.3938 7.33334 21.633C7.33334 21.8722 7.52791 22.0663 7.76667 22.0663ZM4.30001 15.1331C4.53877 15.1331 4.73334 14.939 4.73334 14.6998C4.73334 14.4606 4.53877 14.2665 4.30001 14.2665C4.06124 14.2665 3.86667 14.4606 3.86667 14.6998C3.86667 14.939 4.06124 15.1331 4.30001 15.1331Z" fill="#00B2FF"/>
</svg>
