<svg xmlns="http://www.w3.org/2000/svg" xmlns:xlink="http://www.w3.org/1999/xlink"><symbol id="arrow" viewBox="0 0 5 10">
  <path d="M0.476196 8.80957L4.28572 5.00005L0.476196 1.19052" stroke="white" stroke-linejoin="round"/>
</symbol><symbol id="cross" viewBox="0 0 20 20">
<path fill-rule="evenodd" clip-rule="evenodd" d="M0.177086 1.03109C-0.0587882 0.795211 -0.0587881 0.412781 0.177087 0.176905C0.412961 -0.0589705 0.79539 -0.0589706 1.03126 0.176905L10.0001 9.14577L18.9689 0.17691C19.2048 -0.0589653 19.5872 -0.0589653 19.8231 0.176911C20.059 0.412786 20.059 0.795217 19.8231 1.03109L10.8543 9.99996L19.8232 18.9689C20.0591 19.2048 20.0591 19.5872 19.8232 19.8231C19.5873 20.059 19.2049 20.059 18.969 19.8231L10.0001 10.8541L1.03118 19.8231C0.795303 20.059 0.412874 20.059 0.176999 19.8231C-0.0588753 19.5872 -0.0588755 19.2048 0.176999 18.9689L9.14592 9.99996L0.177086 1.03109Z" fill="white"/>
</symbol><symbol id="email" viewBox="0 0 21 20">
<path d="M18.0584 0H2.94568C1.59663 0 0.5 1.441 0.5 3.2137V16.7863C0.5 18.559 1.59663 20 2.94568 20H18.0543C19.4034 20 20.5 18.559 20.5 16.7863V3.21914C20.5041 1.44644 19.4075 0 18.0584 0ZM19.3868 16.7863C19.3868 17.7488 18.7909 18.5318 18.0584 18.5318H2.94568C2.21322 18.5318 1.61732 17.7488 1.61732 16.7863V3.21914C1.61732 2.25666 2.21322 1.47363 2.94568 1.47363H18.0543C18.7868 1.47363 19.3827 2.25666 19.3827 3.21914V16.7863H19.3868Z" fill="#00B2FF"/>
<path d="M13.1133 9.83144L18.0047 4.06744C18.2323 3.79555 18.253 3.33334 18.0461 3.02883C17.8392 2.72975 17.4874 2.70256 17.2557 2.97445L10.5104 10.9299L9.19446 9.38554C9.19032 9.38011 9.18618 9.37467 9.18618 9.36923C9.15721 9.33117 9.12824 9.29854 9.09514 9.26591L3.74029 2.96901C3.50855 2.69713 3.1568 2.72431 2.94989 3.02883C2.74298 3.33334 2.76367 3.79555 2.99541 4.06744L7.94471 9.88038L3.0161 15.9435C2.79264 16.2208 2.78022 16.683 2.99127 16.9821C3.103 17.1343 3.25198 17.2159 3.40096 17.2159C3.53752 17.2159 3.67408 17.1506 3.78167 17.0201L8.78477 10.87L10.1421 12.4633C10.2497 12.5884 10.3821 12.6482 10.5145 12.6482C10.647 12.6482 10.7835 12.5829 10.887 12.4579L12.2816 10.8157L17.2557 17.0256C17.3633 17.1615 17.504 17.2268 17.6405 17.2268C17.7895 17.2268 17.9344 17.1506 18.0461 16.9984C18.2571 16.7047 18.2489 16.2371 18.0254 15.9598L13.1133 9.83144Z" fill="#00B2FF"/>
</symbol><symbol id="icon-close" viewBox="0 0 20 20"><path d="M.293 18.291a1 1 0 101.414 1.414L10 11.413l8.292 8.292a1 1 0 101.414-1.414l-8.292-8.292 8.292-8.292A1 1 0 1018.291.293L9.999 8.585 1.707.293A1 1 0 10.293 1.707L8.585 10 .293 18.291z"/></symbol><symbol id="mark" viewBox="0 0 9 6">
<path d="M0.988525 2.33333L3.7778 5L7.96171 1" stroke="white"/>
</symbol><symbol id="minus" viewBox="0 0 15 15">
<path d="M0 7H15V8H0V7Z" fill="#F8FDFF"/>
</symbol><symbol id="ok" viewBox="0 0 11 19">
<path fill-rule="evenodd" clip-rule="evenodd" d="M5.52646 0C8.20999 0 10.425 2.21771 10.4037 4.92588C10.4037 7.65538 8.16739 9.85177 5.44127 9.80912C2.75774 9.76647 0.606661 7.57008 0.606661 4.90456C0.606661 2.19639 2.80034 0 5.52646 0ZM11 11.5151C11 11.5364 10.9947 11.5524 10.9894 11.5684C10.984 11.5844 10.9787 11.6004 10.9787 11.6217C10.9148 12.0482 10.7018 12.3893 10.3398 12.6239C10.1055 12.7732 9.84992 12.9224 9.59435 13.0504C8.95541 13.3703 8.27388 13.6261 7.57105 13.7967C7.52881 13.8073 7.50751 13.8126 7.50457 13.8231C7.50157 13.8338 7.51754 13.8498 7.54975 13.882L7.54975 13.882L8.72114 15.0549L10.212 16.5476C10.9148 17.2513 10.7231 18.4241 9.82862 18.8506C9.71486 18.9157 9.5887 18.9435 9.45961 18.972C9.41952 18.9808 9.37915 18.9897 9.33877 18.9998H9.0619C9.0406 18.9998 9.0193 18.9998 9.0193 18.9785C8.67854 18.9359 8.40167 18.7653 8.14609 18.5307L5.56905 15.9505C5.53711 15.9185 5.52114 15.9025 5.50516 15.9025C5.48919 15.9025 5.47322 15.9185 5.44127 15.9505L2.84293 18.552C2.69385 18.7013 2.54476 18.8079 2.35308 18.8932C2.23433 18.9527 2.09719 18.9753 1.97584 18.9953L1.94842 18.9998H1.67155C1.65026 18.9998 1.63428 18.9945 1.61831 18.9892C1.60234 18.9838 1.58636 18.9785 1.56506 18.9785C0.990023 18.8719 0.606661 18.552 0.436278 17.9976C0.265896 17.4432 0.393682 16.9527 0.798342 16.5476L1.86323 15.4813L3.43927 13.9034C3.47149 13.8711 3.48746 13.8551 3.48446 13.8445C3.48151 13.834 3.46022 13.8286 3.41798 13.8181C3.40733 13.8181 3.39135 13.8127 3.37538 13.8074C3.35941 13.8021 3.34343 13.7967 3.33278 13.7967C2.37438 13.5622 1.50117 13.1783 0.670555 12.6666C0.180705 12.3467 -0.0535718 11.8776 0.0103215 11.3018C0.116811 10.2356 1.30949 9.65985 2.204 10.2356C2.37438 10.3422 2.52347 10.4275 2.71515 10.5128C3.69485 11.0033 4.73844 11.2165 5.82463 11.1525C6.35708 11.1312 6.88952 11.0246 7.42197 10.854C7.93312 10.6834 8.38037 10.4488 8.84892 10.193C9.61564 9.74515 10.6166 10.1077 10.9148 10.9393C10.9574 11.0672 10.9787 11.1739 11 11.3018V11.5151ZM5.48353 6.9303C6.63361 6.9303 7.52812 5.97071 7.50683 4.92583C7.52812 3.88094 6.65491 2.90003 5.50483 2.90003C4.39734 2.90003 3.48153 3.79565 3.48153 4.90451C3.48153 6.01336 4.37604 6.9303 5.48353 6.9303Z" fill="#041827"/>
</symbol><symbol id="phone" viewBox="0 0 21 20">
<path d="M16.3147 12.3893C15.9047 11.9629 15.4101 11.735 14.8859 11.735C14.366 11.735 13.8672 11.9587 13.4402 12.3851L12.1044 13.7147C11.9945 13.6556 11.8846 13.6007 11.7789 13.5459C11.6267 13.4699 11.483 13.3981 11.3604 13.3222C10.1091 12.5286 8.97196 11.4944 7.88132 10.1563C7.35291 9.48936 6.99782 8.92795 6.73995 8.35809C7.08659 8.04151 7.40786 7.71226 7.72068 7.39567C7.83905 7.27748 7.95741 7.15507 8.07578 7.03688C8.9635 6.15044 8.9635 5.00229 8.07578 4.11585L6.92173 2.96348C6.79068 2.83262 6.65541 2.69755 6.52859 2.56247C6.27495 2.30076 6.00863 2.03061 5.73386 1.77734C5.32381 1.37211 4.83345 1.15683 4.31772 1.15683C3.80199 1.15683 3.30317 1.37211 2.88045 1.77734C2.87622 1.78156 2.87622 1.78156 2.87199 1.78578L1.43471 3.23363C0.893623 3.77394 0.585031 4.43243 0.517395 5.19646C0.41594 6.42903 0.779486 7.57718 1.05849 8.32854C1.74331 10.1732 2.76631 11.8827 4.29236 13.7147C6.14391 15.9224 8.37168 17.6657 10.9165 18.8941C11.8888 19.3542 13.1866 19.8987 14.6365 19.9916C14.7253 19.9958 14.8183 20 14.9028 20C15.8793 20 16.6994 19.6496 17.342 18.9532C17.3462 18.9447 17.3547 18.9405 17.3589 18.932C17.5787 18.6661 17.8323 18.4255 18.0987 18.168C18.2804 17.995 18.4664 17.8134 18.6482 17.6235C19.0667 17.1887 19.2865 16.6822 19.2865 16.163C19.2865 15.6396 19.0625 15.1372 18.6355 14.7151L16.3147 12.3893ZM17.8281 16.8341C17.8239 16.8341 17.8239 16.8384 17.8281 16.8341C17.6633 17.0114 17.4942 17.1718 17.3124 17.3491C17.0376 17.6108 16.7586 17.8852 16.4965 18.1933C16.0696 18.6492 15.5665 18.8645 14.9071 18.8645C14.8437 18.8645 14.776 18.8645 14.7126 18.8603C13.4571 18.7801 12.2904 18.2904 11.4153 17.8725C9.02269 16.7159 6.92173 15.0739 5.17586 12.9929C3.73436 11.258 2.77054 9.65398 2.13222 7.93176C1.73908 6.88069 1.59535 6.06179 1.65876 5.28932C1.70103 4.79545 1.89126 4.386 2.24213 4.03565L3.68363 2.59624C3.89077 2.40207 4.11058 2.29654 4.32618 2.29654C4.59249 2.29654 4.80809 2.45694 4.94336 2.59202C4.94759 2.59624 4.95181 2.60046 4.95604 2.60468C5.2139 2.84529 5.45909 3.09433 5.71695 3.36026C5.848 3.49534 5.98327 3.63042 6.11854 3.76971L7.27259 4.92209C7.72068 5.36953 7.72068 5.7832 7.27259 6.23064C7.15 6.35305 7.03164 6.47546 6.90905 6.59366C6.55395 6.95667 6.21577 7.29437 5.848 7.62361C5.83954 7.63206 5.83109 7.63628 5.82686 7.64472C5.46332 8.00774 5.53095 8.36231 5.60704 8.60292C5.61127 8.61558 5.6155 8.62824 5.61972 8.64091C5.91986 9.36694 6.34259 10.0508 6.98514 10.8654L6.98936 10.8697C8.15609 12.3049 9.38623 13.4235 10.7432 14.2803C10.9165 14.3901 11.0941 14.4787 11.2631 14.5632C11.4153 14.6391 11.5591 14.7109 11.6816 14.7869C11.6986 14.7953 11.7155 14.808 11.7324 14.8164C11.8761 14.8882 12.0114 14.922 12.1509 14.922C12.5017 14.922 12.7216 14.7025 12.7934 14.6307L14.2392 13.1871C14.3829 13.0436 14.6112 12.8705 14.8775 12.8705C15.1396 12.8705 15.3552 13.0351 15.4862 13.1786C15.4904 13.1829 15.4904 13.1829 15.4947 13.1871L17.8239 15.5129C18.2593 15.9435 18.2593 16.3867 17.8281 16.8341Z" fill="#00B2FF"/>
<path d="M11.3095 4.75747C12.4171 4.9432 13.4232 5.46662 14.2264 6.26863C15.0295 7.07065 15.5495 8.07528 15.7397 9.18122C15.7862 9.45981 16.0272 9.65399 16.3019 9.65399C16.3358 9.65399 16.3654 9.64977 16.3992 9.64554C16.712 9.59489 16.9191 9.29941 16.8684 8.98705C16.6401 7.64895 16.006 6.42904 15.038 5.4624C14.0699 4.49576 12.8483 3.86258 11.5082 3.63464C11.1954 3.58399 10.9037 3.79083 10.8488 4.09897C10.7938 4.40711 10.9967 4.70681 11.3095 4.75747Z" fill="#00B2FF"/>
<path d="M20.4913 8.82242C20.1151 6.61899 19.0752 4.61395 17.4773 3.01836C15.8794 1.42277 13.8714 0.384369 11.6648 0.00868773C11.3562 -0.0461871 11.0645 0.16487 11.0095 0.473013C10.9588 0.785377 11.1659 1.07664 11.4788 1.13151C13.4487 1.46498 15.2453 2.39785 16.6741 3.82038C18.1029 5.24712 19.0329 7.0411 19.3669 9.00815C19.4134 9.28675 19.6543 9.48092 19.9291 9.48092C19.9629 9.48092 19.9925 9.4767 20.0263 9.47248C20.3349 9.42605 20.5463 9.13057 20.4913 8.82242Z" fill="#00B2FF"/>
</symbol><symbol id="pinterest" viewBox="0 0 20 20">
<path d="M10 0C4.4823 0 0 4.4823 0 10C0 15.5177 4.4823 20 10 20C15.5177 20 20 15.5177 20 10C20 4.4823 15.5177 0 10 0ZM10 0.869565C15.0477 0.869565 19.1304 4.95225 19.1304 10C19.1304 15.0477 15.0477 19.1304 10 19.1304C9.07668 19.1304 8.18596 18.9922 7.3463 18.7381C7.72032 18.1128 8.20319 17.219 8.39504 16.481C8.50901 16.0434 8.97758 14.2587 8.97758 14.2587C9.2821 14.84 10.1719 15.332 11.1192 15.332C13.9383 15.332 15.9706 12.7394 15.9706 9.51766C15.9706 6.42893 13.4502 4.11855 10.2072 4.11855C6.17254 4.11855 4.03108 6.82645 4.03108 9.77497C4.03108 11.1462 4.7604 12.8531 5.92816 13.3967C6.10505 13.4791 6.20003 13.4434 6.24066 13.2719C6.27194 13.1418 6.42968 12.5073 6.50051 12.2121C6.52316 12.1179 6.51219 12.0365 6.43597 11.9438C6.04948 11.475 5.73964 10.6138 5.73964 9.81063C5.73964 7.74872 7.30063 5.75323 9.96009 5.75323C12.2564 5.75323 13.8646 7.31864 13.8646 9.55673C13.8646 12.0853 12.5879 13.8375 10.9265 13.8375C10.0089 13.8375 9.3219 13.0784 9.54229 12.1476C9.80654 11.0366 10.3167 9.8378 10.3167 9.03533C10.3167 8.3177 9.93163 7.71909 9.13383 7.71909C8.19581 7.71909 7.44226 8.68889 7.44226 9.98896C7.44225 10.8162 7.72249 11.3765 7.72249 11.3765C7.72249 11.3765 6.79589 15.2941 6.62619 16.0233C6.45613 16.7519 6.50167 17.7332 6.57184 18.4638C3.22658 17.1098 0.869565 13.8345 0.869565 10C0.869565 4.95225 4.95225 0.869565 10 0.869565Z" fill="#041827"/>
</symbol><symbol id="plus" viewBox="0 0 15 15">
<path fill-rule="evenodd" clip-rule="evenodd" d="M7.96875 7.03125V0H7.03125V7.03125H0V7.96875H7.03125V15H7.96875V7.96875H15V7.03125H7.96875Z" fill="#F8FDFF"/>
</symbol><symbol id="vk" viewBox="0 0 19 11">
<path fill-rule="evenodd" clip-rule="evenodd" d="M16.862 7.56184C16.9046 7.60231 16.9487 7.64416 16.9942 7.68749C17.9436 8.56328 19.0829 9.82831 18.988 10.5095C18.988 10.8014 18.7981 10.996 18.1335 10.996H15.5701C14.4582 10.996 14.0409 10.5215 13.369 9.75759C13.1804 9.54311 12.9717 9.30582 12.7219 9.04983C11.6776 7.97942 11.108 8.7579 11.108 10.3149C11.108 10.5095 11.013 10.7041 10.9181 10.8014C10.8232 10.8987 10.6333 10.996 10.4434 10.996C10.3379 10.996 10.2291 10.997 10.1174 10.9979C8.62097 11.0109 6.58904 11.0284 4.55712 8.85521C2.3735 6.42246 0 1.65427 0 1.16772C0 0.87579 0.28482 0.77848 0.66458 0.77848H3.13302C3.60772 0.77848 3.98748 1.07041 4.08242 1.55696C4.93687 3.40585 6.83567 7.00632 7.31037 4.96281C7.59519 3.79509 7.69013 1.07041 6.45591 0.87579C5.79133 0.77848 7.02555 0 8.82941 0C9.30411 0 9.77881 0.0973098 10.2535 0.19462C10.5383 0.19462 10.8232 0.389239 11.013 0.583859C11.2029 0.778479 11.2978 1.07041 11.2029 1.36234C11.2029 2.01936 11.1804 2.60707 11.1607 3.12114C11.1103 4.43434 11.0783 5.26693 11.4877 5.54667C12.0574 5.93591 13.5764 3.50316 14.3359 1.65427C14.3521 1.61284 14.3676 1.57212 14.3827 1.53228C14.5454 1.10426 14.6692 0.77848 15.1904 0.77848H18.3234C19.9437 0.77848 18.3208 2.87795 16.9343 4.6716C16.8584 4.76972 16.7833 4.86692 16.7094 4.96281C15.6092 6.37246 15.66 6.42075 16.862 7.56184Z" fill="#041827"/>
</symbol></svg>